<!DOCTYPE svg PUBLIC "-//W3C//DTD SVG 1.1//EN" "http://www.w3.org/Graphics/SVG/1.1/DTD/svg11.dtd">
<!-- Uploaded to: SVG Repo, www.svgrepo.com, Transformed by: SVG Repo Mixer Tools -->
<svg version="1.1" id="Uploaded to svgrepo.com" xmlns="http://www.w3.org/2000/svg" xmlns:xlink="http://www.w3.org/1999/xlink" width="800px" height="800px" viewBox="0 0 32 32" xml:space="preserve" fill="#000000">
<g id="SVGRepo_bgCarrier" stroke-width="0"/>
<g id="SVGRepo_tracerCarrier" stroke-linecap="round" stroke-linejoin="round"/>
<g id="SVGRepo_iconCarrier"> <style type="text/css"> .puchipuchi_een{fill:#ffffff;} </style> <path class="puchipuchi_een" d="M26,9H6V3c0-1.1,0.9-2,2-2h16c1.1,0,2,0.9,2,2V9z M6,19h20v10c0,1.1-0.9,2-2,2H8c-1.1,0-2-0.9-2-2 V19z M10,23c0,0.552,0.447,1,1,1h10c0.553,0,1-0.448,1-1s-0.447-1-1-1H11C10.447,22,10,22.448,10,23z M10,27c0,0.552,0.447,1,1,1h10 c0.553,0,1-0.448,1-1s-0.447-1-1-1H11C10.447,26,10,26.448,10,27z M31,12v7c0,1.1-0.9,2-2,2h-2v-3H5v3H3c-1.1,0-2-0.9-2-2v-7 c0-1.1,0.9-2,2-2h26C30.1,10,31,10.9,31,12z M5,13c0-0.552-0.448-1-1-1s-1,0.448-1,1c0,0.552,0.448,1,1,1S5,13.552,5,13z M8,13 c0-0.552-0.448-1-1-1s-1,0.448-1,1c0,0.552,0.448,1,1,1S8,13.552,8,13z"/> </g>
</svg>